<svg xmlns="http://www.w3.org/2000/svg" version="1.1" xmlns:xlink="http://www.w3.org/1999/xlink" xmlns:svgjs="http://svgjs.com/svgjs" width="1440" height="560" preserveAspectRatio="none" viewBox="0 0 1440 560"><g mask="url(&quot;#SvgjsMask1007&quot;)" fill="none"><rect width="1440" height="560" x="0" y="0" fill="rgba(0, 0, 0, 0.95)"></rect><path d="M292.38 177.62L357.33 215.12L357.33 290.12L292.38 327.62L227.42 290.12L227.42 215.12zM422.28 -47.38L487.24 -9.88L487.24 65.12L422.28 102.62L357.33 65.12L357.33 -9.88zM487.24 65.12L552.19 102.62L552.19 177.62L487.24 215.12L422.28 177.62L422.28 102.62zM487.24 290.12L552.19 327.62L552.19 402.62L487.24 440.12L422.28 402.62L422.28 327.62zM552.19 -47.38L617.14 -9.88L617.14 65.12L552.19 102.62L487.24 65.12L487.24 -9.88zM682.1 -47.38L747.05 -9.88L747.05 65.12L682.1 102.62L617.14 65.12L617.14 -9.88zM682.1 402.62L747.05 440.12L747.05 515.12L682.1 552.62L617.14 515.12L617.14 440.12zM812 177.62L876.96 215.12L876.96 290.12L812 327.62L747.05 290.12L747.05 215.12zM941.91 -47.38L1006.87 -9.88L1006.87 65.12L941.91 102.62L876.96 65.12L876.96 -9.88zM1006.87 515.12L1071.82 552.62L1071.82 627.62L1006.87 665.12L941.91 627.62L941.91 552.62zM1071.82 -47.38L1136.77 -9.88L1136.77 65.12L1071.82 102.62L1006.87 65.12L1006.87 -9.88zM1071.82 177.62L1136.77 215.12L1136.77 290.12L1071.82 327.62L1006.87 290.12L1006.87 215.12zM1071.82 402.62L1136.77 440.12L1136.77 515.12L1071.82 552.62L1006.87 515.12L1006.87 440.12zM1136.77 515.12L1201.73 552.62L1201.73 627.62L1136.77 665.12L1071.82 627.62L1071.82 552.62zM1266.68 65.12L1331.63 102.62L1331.63 177.62L1266.68 215.12L1201.73 177.62L1201.73 102.62zM1201.73 177.62L1266.68 215.12L1266.68 290.12L1201.73 327.62L1136.77 290.12L1136.77 215.12zM1396.59 65.12L1461.54 102.62L1461.54 177.62L1396.59 215.12L1331.63 177.62L1331.63 102.62zM1331.63 402.62L1396.59 440.12L1396.59 515.12L1331.63 552.62L1266.68 515.12L1266.68 440.12zM1396.59 515.12L1461.54 552.62L1461.54 627.62L1396.59 665.12L1331.63 627.62L1331.63 552.62zM1526.5 290.12L1591.45 327.62L1591.45 402.62L1526.5 440.12L1461.54 402.62L1461.54 327.62zM1526.5 515.12L1591.45 552.62L1591.45 627.62L1526.5 665.12L1461.54 627.62L1461.54 552.62z" stroke="rgba(179, 103, 1, 1)" stroke-width="2"></path><path d="M284.88 177.62 a7.5 7.5 0 1 0 15 0 a7.5 7.5 0 1 0 -15 0zM349.83 215.12 a7.5 7.5 0 1 0 15 0 a7.5 7.5 0 1 0 -15 0zM349.83 290.12 a7.5 7.5 0 1 0 15 0 a7.5 7.5 0 1 0 -15 0zM284.88 327.62 a7.5 7.5 0 1 0 15 0 a7.5 7.5 0 1 0 -15 0zM219.92 290.12 a7.5 7.5 0 1 0 15 0 a7.5 7.5 0 1 0 -15 0zM219.92 215.12 a7.5 7.5 0 1 0 15 0 a7.5 7.5 0 1 0 -15 0zM414.78 -47.38 a7.5 7.5 0 1 0 15 0 a7.5 7.5 0 1 0 -15 0zM479.74 -9.88 a7.5 7.5 0 1 0 15 0 a7.5 7.5 0 1 0 -15 0zM479.74 65.12 a7.5 7.5 0 1 0 15 0 a7.5 7.5 0 1 0 -15 0zM414.78 102.62 a7.5 7.5 0 1 0 15 0 a7.5 7.5 0 1 0 -15 0zM349.83 65.12 a7.5 7.5 0 1 0 15 0 a7.5 7.5 0 1 0 -15 0zM349.83 -9.88 a7.5 7.5 0 1 0 15 0 a7.5 7.5 0 1 0 -15 0zM544.69 102.62 a7.5 7.5 0 1 0 15 0 a7.5 7.5 0 1 0 -15 0zM544.69 177.62 a7.5 7.5 0 1 0 15 0 a7.5 7.5 0 1 0 -15 0zM479.74 215.12 a7.5 7.5 0 1 0 15 0 a7.5 7.5 0 1 0 -15 0zM414.78 177.62 a7.5 7.5 0 1 0 15 0 a7.5 7.5 0 1 0 -15 0zM479.74 290.12 a7.5 7.5 0 1 0 15 0 a7.5 7.5 0 1 0 -15 0zM544.69 327.62 a7.5 7.5 0 1 0 15 0 a7.5 7.5 0 1 0 -15 0zM544.69 402.62 a7.5 7.5 0 1 0 15 0 a7.5 7.5 0 1 0 -15 0zM479.74 440.12 a7.5 7.5 0 1 0 15 0 a7.5 7.5 0 1 0 -15 0zM414.78 402.62 a7.5 7.5 0 1 0 15 0 a7.5 7.5 0 1 0 -15 0zM414.78 327.62 a7.5 7.5 0 1 0 15 0 a7.5 7.5 0 1 0 -15 0zM544.69 -47.38 a7.5 7.5 0 1 0 15 0 a7.5 7.5 0 1 0 -15 0zM609.64 -9.88 a7.5 7.5 0 1 0 15 0 a7.5 7.5 0 1 0 -15 0zM609.64 65.12 a7.5 7.5 0 1 0 15 0 a7.5 7.5 0 1 0 -15 0zM674.6 -47.38 a7.5 7.5 0 1 0 15 0 a7.5 7.5 0 1 0 -15 0zM739.55 -9.88 a7.5 7.5 0 1 0 15 0 a7.5 7.5 0 1 0 -15 0zM739.55 65.12 a7.5 7.5 0 1 0 15 0 a7.5 7.5 0 1 0 -15 0zM674.6 102.62 a7.5 7.5 0 1 0 15 0 a7.5 7.5 0 1 0 -15 0zM674.6 402.62 a7.5 7.5 0 1 0 15 0 a7.5 7.5 0 1 0 -15 0zM739.55 440.12 a7.5 7.5 0 1 0 15 0 a7.5 7.5 0 1 0 -15 0zM739.55 515.12 a7.5 7.5 0 1 0 15 0 a7.5 7.5 0 1 0 -15 0zM674.6 552.62 a7.5 7.5 0 1 0 15 0 a7.5 7.5 0 1 0 -15 0zM609.64 515.12 a7.5 7.5 0 1 0 15 0 a7.5 7.5 0 1 0 -15 0zM609.64 440.12 a7.5 7.5 0 1 0 15 0 a7.5 7.5 0 1 0 -15 0zM804.5 177.62 a7.5 7.5 0 1 0 15 0 a7.5 7.5 0 1 0 -15 0zM869.46 215.12 a7.5 7.5 0 1 0 15 0 a7.5 7.5 0 1 0 -15 0zM869.46 290.12 a7.5 7.5 0 1 0 15 0 a7.5 7.5 0 1 0 -15 0zM804.5 327.62 a7.5 7.5 0 1 0 15 0 a7.5 7.5 0 1 0 -15 0zM739.55 290.12 a7.5 7.5 0 1 0 15 0 a7.5 7.5 0 1 0 -15 0zM739.55 215.12 a7.5 7.5 0 1 0 15 0 a7.5 7.5 0 1 0 -15 0zM934.41 -47.38 a7.5 7.5 0 1 0 15 0 a7.5 7.5 0 1 0 -15 0zM999.37 -9.88 a7.5 7.5 0 1 0 15 0 a7.5 7.5 0 1 0 -15 0zM999.37 65.12 a7.5 7.5 0 1 0 15 0 a7.5 7.5 0 1 0 -15 0zM934.41 102.62 a7.5 7.5 0 1 0 15 0 a7.5 7.5 0 1 0 -15 0zM869.46 65.12 a7.5 7.5 0 1 0 15 0 a7.5 7.5 0 1 0 -15 0zM869.46 -9.88 a7.5 7.5 0 1 0 15 0 a7.5 7.5 0 1 0 -15 0zM999.37 515.12 a7.5 7.5 0 1 0 15 0 a7.5 7.5 0 1 0 -15 0zM1064.32 552.62 a7.5 7.5 0 1 0 15 0 a7.5 7.5 0 1 0 -15 0zM1064.32 627.62 a7.5 7.5 0 1 0 15 0 a7.5 7.5 0 1 0 -15 0zM999.37 665.12 a7.5 7.5 0 1 0 15 0 a7.5 7.5 0 1 0 -15 0zM934.41 627.62 a7.5 7.5 0 1 0 15 0 a7.5 7.5 0 1 0 -15 0zM934.41 552.62 a7.5 7.5 0 1 0 15 0 a7.5 7.5 0 1 0 -15 0zM1064.32 -47.38 a7.5 7.5 0 1 0 15 0 a7.5 7.5 0 1 0 -15 0zM1129.27 -9.88 a7.5 7.5 0 1 0 15 0 a7.5 7.5 0 1 0 -15 0zM1129.27 65.12 a7.5 7.5 0 1 0 15 0 a7.5 7.5 0 1 0 -15 0zM1064.32 102.62 a7.5 7.5 0 1 0 15 0 a7.5 7.5 0 1 0 -15 0zM1064.32 177.62 a7.5 7.5 0 1 0 15 0 a7.5 7.5 0 1 0 -15 0zM1129.27 215.12 a7.5 7.5 0 1 0 15 0 a7.5 7.5 0 1 0 -15 0zM1129.27 290.12 a7.5 7.5 0 1 0 15 0 a7.5 7.5 0 1 0 -15 0zM1064.32 327.62 a7.5 7.5 0 1 0 15 0 a7.5 7.5 0 1 0 -15 0zM999.37 290.12 a7.5 7.5 0 1 0 15 0 a7.5 7.5 0 1 0 -15 0zM999.37 215.12 a7.5 7.5 0 1 0 15 0 a7.5 7.5 0 1 0 -15 0zM1064.32 402.62 a7.5 7.5 0 1 0 15 0 a7.5 7.5 0 1 0 -15 0zM1129.27 440.12 a7.5 7.5 0 1 0 15 0 a7.5 7.5 0 1 0 -15 0zM1129.27 515.12 a7.5 7.5 0 1 0 15 0 a7.5 7.5 0 1 0 -15 0zM999.37 440.12 a7.5 7.5 0 1 0 15 0 a7.5 7.5 0 1 0 -15 0zM1194.23 552.62 a7.5 7.5 0 1 0 15 0 a7.5 7.5 0 1 0 -15 0zM1194.23 627.62 a7.5 7.5 0 1 0 15 0 a7.5 7.5 0 1 0 -15 0zM1129.27 665.12 a7.5 7.5 0 1 0 15 0 a7.5 7.5 0 1 0 -15 0zM1259.18 65.12 a7.5 7.5 0 1 0 15 0 a7.5 7.5 0 1 0 -15 0zM1324.13 102.62 a7.5 7.5 0 1 0 15 0 a7.5 7.5 0 1 0 -15 0zM1324.13 177.62 a7.5 7.5 0 1 0 15 0 a7.5 7.5 0 1 0 -15 0zM1259.18 215.12 a7.5 7.5 0 1 0 15 0 a7.5 7.5 0 1 0 -15 0zM1194.23 177.62 a7.5 7.5 0 1 0 15 0 a7.5 7.5 0 1 0 -15 0zM1194.23 102.62 a7.5 7.5 0 1 0 15 0 a7.5 7.5 0 1 0 -15 0zM1259.18 290.12 a7.5 7.5 0 1 0 15 0 a7.5 7.5 0 1 0 -15 0zM1194.23 327.62 a7.5 7.5 0 1 0 15 0 a7.5 7.5 0 1 0 -15 0zM1389.09 65.12 a7.5 7.5 0 1 0 15 0 a7.5 7.5 0 1 0 -15 0zM1454.04 102.62 a7.5 7.5 0 1 0 15 0 a7.5 7.5 0 1 0 -15 0zM1454.04 177.62 a7.5 7.5 0 1 0 15 0 a7.5 7.5 0 1 0 -15 0zM1389.09 215.12 a7.5 7.5 0 1 0 15 0 a7.5 7.5 0 1 0 -15 0zM1324.13 402.62 a7.5 7.5 0 1 0 15 0 a7.5 7.5 0 1 0 -15 0zM1389.09 440.12 a7.5 7.5 0 1 0 15 0 a7.5 7.5 0 1 0 -15 0zM1389.09 515.12 a7.5 7.5 0 1 0 15 0 a7.5 7.5 0 1 0 -15 0zM1324.13 552.62 a7.5 7.5 0 1 0 15 0 a7.5 7.5 0 1 0 -15 0zM1259.18 515.12 a7.5 7.5 0 1 0 15 0 a7.5 7.5 0 1 0 -15 0zM1259.18 440.12 a7.5 7.5 0 1 0 15 0 a7.5 7.5 0 1 0 -15 0zM1454.04 552.62 a7.5 7.5 0 1 0 15 0 a7.5 7.5 0 1 0 -15 0zM1454.04 627.62 a7.5 7.5 0 1 0 15 0 a7.5 7.5 0 1 0 -15 0zM1389.09 665.12 a7.5 7.5 0 1 0 15 0 a7.5 7.5 0 1 0 -15 0zM1324.13 627.62 a7.5 7.5 0 1 0 15 0 a7.5 7.5 0 1 0 -15 0zM1519 290.12 a7.5 7.5 0 1 0 15 0 a7.5 7.5 0 1 0 -15 0zM1583.95 327.62 a7.5 7.5 0 1 0 15 0 a7.5 7.5 0 1 0 -15 0zM1583.95 402.62 a7.5 7.5 0 1 0 15 0 a7.5 7.5 0 1 0 -15 0zM1519 440.12 a7.5 7.5 0 1 0 15 0 a7.5 7.5 0 1 0 -15 0zM1454.04 402.62 a7.5 7.5 0 1 0 15 0 a7.5 7.5 0 1 0 -15 0zM1454.04 327.62 a7.5 7.5 0 1 0 15 0 a7.5 7.5 0 1 0 -15 0zM1519 515.12 a7.5 7.5 0 1 0 15 0 a7.5 7.5 0 1 0 -15 0zM1583.95 552.62 a7.5 7.5 0 1 0 15 0 a7.5 7.5 0 1 0 -15 0zM1583.95 627.62 a7.5 7.5 0 1 0 15 0 a7.5 7.5 0 1 0 -15 0zM1519 665.12 a7.5 7.5 0 1 0 15 0 a7.5 7.5 0 1 0 -15 0z" fill="rgba(179, 103, 1, 1)"></path><path d="M18.17 121.18L61.47 146.18L61.47 196.18L18.17 221.18L-25.13 196.18L-25.13 146.18zM61.47 196.18L104.78 221.18L104.78 271.18L61.47 296.18L18.17 271.18L18.17 221.18zM104.78 271.18L148.08 296.18L148.08 346.18L104.78 371.18L61.47 346.18L61.47 296.18zM191.38 -28.82L234.68 -3.82L234.68 46.18L191.38 71.18L148.08 46.18L148.08 -3.82zM191.38 421.18L234.68 446.18L234.68 496.18L191.38 521.18L148.08 496.18L148.08 446.18zM321.29 346.18L364.59 371.18L364.59 421.18L321.29 446.18L277.99 421.18L277.99 371.18zM407.89 196.18L451.2 221.18L451.2 271.18L407.89 296.18L364.59 271.18L364.59 221.18zM407.89 346.18L451.2 371.18L451.2 421.18L407.89 446.18L364.59 421.18L364.59 371.18zM494.5 46.18L537.8 71.18L537.8 121.18L494.5 146.18L451.2 121.18L451.2 71.18zM494.5 196.18L537.8 221.18L537.8 271.18L494.5 296.18L451.2 271.18L451.2 221.18zM451.2 421.18L494.5 446.18L494.5 496.18L451.2 521.18L407.89 496.18L407.89 446.18zM537.8 121.18L581.1 146.18L581.1 196.18L537.8 221.18L494.5 196.18L494.5 146.18zM581.1 196.18L624.4 221.18L624.4 271.18L581.1 296.18L537.8 271.18L537.8 221.18zM537.8 271.18L581.1 296.18L581.1 346.18L537.8 371.18L494.5 346.18L494.5 296.18zM581.1 346.18L624.4 371.18L624.4 421.18L581.1 446.18L537.8 421.18L537.8 371.18zM624.4 -28.82L667.71 -3.82L667.71 46.18L624.4 71.18L581.1 46.18L581.1 -3.82zM624.4 121.18L667.71 146.18L667.71 196.18L624.4 221.18L581.1 196.18L581.1 146.18zM624.4 421.18L667.71 446.18L667.71 496.18L624.4 521.18L581.1 496.18L581.1 446.18zM711.01 -28.82L754.31 -3.82L754.31 46.18L711.01 71.18L667.71 46.18L667.71 -3.82zM711.01 121.18L754.31 146.18L754.31 196.18L711.01 221.18L667.71 196.18L667.71 146.18zM840.92 46.18L884.22 71.18L884.22 121.18L840.92 146.18L797.62 121.18L797.62 71.18zM797.62 121.18L840.92 146.18L840.92 196.18L797.62 221.18L754.31 196.18L754.31 146.18zM840.92 346.18L884.22 371.18L884.22 421.18L840.92 446.18L797.62 421.18L797.62 371.18zM927.52 196.18L970.83 221.18L970.83 271.18L927.52 296.18L884.22 271.18L884.22 221.18zM927.52 346.18L970.83 371.18L970.83 421.18L927.52 446.18L884.22 421.18L884.22 371.18zM970.83 -28.82L1014.13 -3.82L1014.13 46.18L970.83 71.18L927.52 46.18L927.52 -3.82zM1057.43 -28.82L1100.73 -3.82L1100.73 46.18L1057.43 71.18L1014.13 46.18L1014.13 -3.82zM1100.73 46.18L1144.04 71.18L1144.04 121.18L1100.73 146.18L1057.43 121.18L1057.43 71.18zM1100.73 496.18L1144.04 521.18L1144.04 571.18L1100.73 596.18L1057.43 571.18L1057.43 521.18zM1230.64 271.18L1273.94 296.18L1273.94 346.18L1230.64 371.18L1187.34 346.18L1187.34 296.18zM1317.25 271.18L1360.55 296.18L1360.55 346.18L1317.25 371.18L1273.94 346.18L1273.94 296.18zM1360.55 346.18L1403.85 371.18L1403.85 421.18L1360.55 446.18L1317.25 421.18L1317.25 371.18z" stroke="rgba(156, 71, 6, 0.93)" stroke-width="2"></path></g><defs><mask id="SvgjsMask1007"><rect width="1440" height="560" fill="#ffffff"></rect></mask></defs></svg>